<?xml version="1.0" encoding="UTF-8"?>
<!DOCTYPE svg PUBLIC "-//W3C//DTD SVG 1.1//EN" "http://www.w3.org/Graphics/SVG/1.1/DTD/svg11.dtd">
<!-- Creator: CorelDRAW -->
<svg xmlns="http://www.w3.org/2000/svg" xml:space="preserve" width="6.82666in" height="6.82666in" style="shape-rendering:geometricPrecision; text-rendering:geometricPrecision; image-rendering:optimizeQuality; fill-rule:evenodd; clip-rule:evenodd"
viewBox="0 0 6.82666 6.82666"
 xmlns:xlink="http://www.w3.org/1999/xlink">
 <defs>
  <style type="text/css">
   <![CDATA[
    .fil2 {fill:none}
    .fil1 {fill:#283593}
    .fil0 {fill:#3949AB}
    .fil4 {fill:#29B6F6;fill-rule:nonzero}
    .fil3 {fill:#81D4FA;fill-rule:nonzero}
   ]]>
  </style>
   <clipPath id="id0">
    <path d="M3.41333 -3.93701e-006c1.88514,0 3.41333,1.52819 3.41333,3.41333 0,1.88514 -1.52819,3.41333 -3.41333,3.41333 -1.88514,0 -3.41333,-1.52819 -3.41333,-3.41333 0,-1.88514 1.52819,-3.41333 3.41333,-3.41333z"/>
   </clipPath>
 </defs>
 <g id="Layer_x0020_1">
  <metadata id="CorelCorpID_0Corel-Layer"/>
  <path class="fil0" d="M3.41333 -3.93701e-006c1.88514,0 3.41333,1.52819 3.41333,3.41333 0,1.88514 -1.52819,3.41333 -3.41333,3.41333 -1.88514,0 -3.41333,-1.52819 -3.41333,-3.41333 0,-1.88514 1.52819,-3.41333 3.41333,-3.41333z"/>
  <g style="clip-path:url(#id0)">
   <g id="_351304112">
    <g>
     <polygon id="_3541152801" class="fil1" points="3.57208,2.57117 7.35835,6.35744 7.25837,6.5234 3.47211,2.73713 "/>
     <polygon id="_354115304" class="fil1" points="4.11889,1.66348 7.90515,5.44975 7.36945,6.33901 3.58319,2.55274 "/>
     <polygon id="_354116144" class="fil1" points="2.8313,3.56296 6.61756,7.34924 6.60785,7.34925 2.82158,3.56298 "/>
     <polygon id="_354116288" class="fil1" points="2.98014,5.05561 6.76641,8.84188 6.62589,9.06627 2.83962,5.28 "/>
     <polygon id="_354115688" class="fil1" points="2.82158,3.56298 6.60785,7.34925 6.6072,7.34925 2.82094,3.56298 "/>
     <polygon id="_354115712" class="fil1" points="2.82094,3.56298 6.6072,7.34925 6.27252,7.3497 2.48625,3.56343 "/>
     <polygon id="_354116480" class="fil1" points="2.48625,3.56343 6.27252,7.3497 6.19633,7.3498 2.41006,3.56353 "/>
     <polygon id="_354117008" class="fil1" points="3.58319,2.55274 7.36945,6.33901 7.35835,6.35744 3.57208,2.57117 "/>
     <polygon id="_354116360" class="fil1" points="4.18926,1.54667 7.97552,5.33294 7.90515,5.44975 4.11889,1.66348 "/>
     <polygon id="_354117032" class="fil1" points="4.43205,2.73713 8.21832,6.5234 8.1446,6.64112 4.35833,2.85485 "/>
     <polygon id="_354116696" class="fil1" points="4.35833,2.85485 8.1446,6.64112 6.76641,8.84188 2.98014,5.05561 "/>
    </g>
    <polygon id="_351304064" class="fil1" points="3.57208,2.57117 3.47211,2.73713 4.2933,2.73713 4.43205,2.73713 4.35833,2.85485 2.98014,5.05561 2.83962,5.28 2.83833,5.01526 2.8313,3.56296 2.82158,3.56298 2.82094,3.56298 2.48625,3.56343 2.41006,3.56353 2.40948,3.48696 2.3952,1.62404 2.39461,1.54667 2.47197,1.54667 4.05295,1.54667 4.18926,1.54667 4.11889,1.66348 3.58319,2.55274 "/>
   </g>
  </g>
  <path class="fil2" d="M3.41333 -3.93701e-006c1.88514,0 3.41333,1.52819 3.41333,3.41333 0,1.88514 -1.52819,3.41333 -3.41333,3.41333 -1.88514,0 -3.41333,-1.52819 -3.41333,-3.41333 0,-1.88514 1.52819,-3.41333 3.41333,-3.41333z"/>
  <polygon class="fil3" points="2.82094,3.56298 2.48625,3.56343 2.41006,3.56353 2.40948,3.48696 2.3952,1.62404 2.39461,1.54667 2.47197,1.54667 4.05295,1.54667 4.18926,1.54667 4.11889,1.66348 3.58319,2.55274 "/>
  <polygon class="fil4" points="2.8313,3.56296 2.82158,3.56298 2.82094,3.56298 3.58319,2.55274 3.57208,2.57117 3.47211,2.73713 4.2933,2.73713 4.43205,2.73713 4.35833,2.85485 2.98014,5.05561 2.83962,5.28 2.83833,5.01526 "/>
 </g>
</svg>
